<?xml version="1.0" encoding="utf-8"?>
<!-- Generator: Adobe Illustrator 26.0.0, SVG Export Plug-In . SVG Version: 6.00 Build 0)  -->
<svg version="1.1" xmlns="http://www.w3.org/2000/svg" xmlns:xlink="http://www.w3.org/1999/xlink" x="0px" y="0px"
	 viewBox="0 0 1920 1920" style="enable-background:new 0 0 1920 1920;" xml:space="preserve">
<style type="text/css">
	.st0{display:none;}
	.st1{fill:#FFFFFF;stroke:#000000;stroke-width:2;stroke-miterlimit:10;}
	.st2{fill:none;stroke:#000000;stroke-width:50;stroke-miterlimit:10;}
	.st3{fill:none;stroke:#2E3192;stroke-width:22;stroke-miterlimit:10;}
	.st4{fill:#FFFFFF;}
	.st5{fill:none;stroke:#000000;stroke-width:20;stroke-miterlimit:10;}
	.st6{fill:#F7931E;}
	.st7{display:none;fill:#FFFFFF;stroke:#000000;stroke-miterlimit:10;}
	.st8{fill:#F2CA50;}
	.st9{fill:#B1DDE9;}
	.st10{fill:none;stroke:#000000;stroke-width:20.5;stroke-miterlimit:10;}
	.st11{fill:#6AC3DA;}
	.st12{fill:#02A9CB;}
	.st13{fill:#FAA819;}
	.st14{fill:#F7E5AF;}
	.st15{fill:#F26A34;}
	.st16{fill:none;stroke:#000000;stroke-width:12;stroke-miterlimit:10;}
</style>
<g id="Layer_1" class="st0">
	<line class="st1" x1="960" y1="0" x2="960" y2="1920"/>
</g>
<g id="Fondo">
	<path id="Original" d="M1283.83,656.35L1023.05,522.3c-39.57-20.34-86.52-20.34-126.1,0L636.17,656.35
		c-35.92,18.47-61.95,51.75-71.2,91.07l-76.21,323.91c-14.54,61.79,14.98,125.53,71.52,154.41l336.99,172.12
		c39.4,20.12,86.06,20.12,125.46,0l336.99-172.12c56.53-28.88,86.05-92.61,71.52-154.41l-76.21-323.91
		C1345.77,708.1,1319.75,674.82,1283.83,656.35z"/>
	<path id="Contorno_Negro" class="st2" d="M1283.83,656.35L1023.05,522.3c-39.57-20.34-86.52-20.34-126.1,0L636.17,656.35
		c-35.92,18.47-61.95,51.75-71.2,91.07l-76.21,323.91c-14.54,61.79,14.98,125.53,71.52,154.41l336.99,172.12
		c39.4,20.12,86.06,20.12,125.46,0l336.99-172.12c56.53-28.88,86.05-92.61,71.52-154.41l-76.21-323.91
		C1345.77,708.1,1319.75,674.82,1283.83,656.35z"/>
	<path id="Azul" class="st3" d="M1283.83,656.35L1023.05,522.3c-39.57-20.34-86.52-20.34-126.1,0L636.17,656.35
		c-35.92,18.47-61.95,51.75-71.2,91.07l-76.21,323.91c-14.54,61.79,14.98,125.53,71.52,154.41l336.99,172.12
		c39.4,20.12,86.06,20.12,125.46,0l336.99-172.12c56.53-28.88,86.05-92.61,71.52-154.41l-76.21-323.91
		C1345.77,708.1,1319.75,674.82,1283.83,656.35z"/>
</g>
<g id="Texto">
	<path d="M1508.83,1069.85c-11.67-20.53-23.31-41.19-34.7-61.62c0.62-0.25,1.28-0.51,1.97-0.79l12.06-4.82l-3.91-12.39
		c-8.62-27.31-17.23-54.63-25.83-81.95l-1.63-5.17l-4.68-2.73c-17.67-10.29-35.56-20.64-53.17-30.75l-3.15-1.81l-3.63-0.05
		c-14.72-0.19-29.67-0.32-44.43-0.37l-18.17-0.07l3.4,13.08c-17.43-10.34-32.32-19.13-46.45-27.42l-7.23-4.24l-7.15,4.37
		c-12.34,7.54-25.45,15.36-40.08,23.92l-2.58,1.51l-5.68-2.97c-16.6-8.69-33.38-17.41-49.86-25.92l-3.38-1.75l-3.8,0.21
		c-15,0.82-30.25,1.73-45.33,2.69l-7.24,0.46l-0.1-1.19l-12.74-0.12c-22.88-0.22-46.08-0.24-68.98-0.06l-7.39,0.06l-0.08-2.1
		l-13.95,0.46c-11.62,0.39-23.39,0.82-34.99,1.29l-7.9,0.32l0-0.62l-14.46,0.37c-11.48,0.29-23.14,0.63-34.68,1.01l-13.13,0.43
		l-0.4,13.13c-0.04,1.31-0.08,2.62-0.12,3.94l-2.51-1.24c-13.84-6.83-28.38-13.96-44.42-21.78l-6.7-3.27l-6.45,3.74
		c-15.43,8.95-31.39,18.1-47.44,27.21l2.25-16.61l-17.33,1.39c-11.47,0.92-23.08,1.9-34.51,2.9l-10.79,0.94l-0.4,2.38l-1.48-2.96
		l-9.66,1.04c-11.42,1.23-23.04,2.53-34.53,3.85l-9.97,1.15l-3.56,16.5l-2.65-1.17c-13.28-5.85-26.75-11.74-40.01-17.53l-6.49-2.83
		l-6.13,3.55c-15.77,9.15-32.52,18.75-52.7,30.24l-3.31,1.88l-3.8-1.57c-12.39-5.13-25.09-10.36-37.74-15.55l-6.38-2.61l-5.96,3.46
		c-17.81,10.34-36.25,20.97-54.79,31.58l-4.2,2.4l-1.82,4.48c-16.22,40-32.43,80-48.62,120.01l-5.45,13.47l13.67,4.94
		c14,5.06,28.23,10.25,42.31,15.42l5.71,2.1l5.43-2.75c20.31-10.27,40.37-20.47,59.61-30.32l4.51-2.31l5.42,2.12
		c15.91,6.22,30.48,11.96,44.54,17.56l5.82,2.32l5.61-2.79c18.7-9.31,37.33-18.65,55.43-27.79l-3.7,17.15l18.82-1.55
		c13.04-1.08,26.27-2.09,39.33-3.02l23.95-0.76c12.99-0.83,26.22-1.61,39.33-2.31l11.58-0.62l1.55-11.5
		c0.33-2.45,0.66-4.91,0.99-7.37l5.63,2.53c16.23,7.3,32.68,14.75,48.88,22.14l5.97,2.72l5.06-2.44c2.82,3.67,5.5,7.14,9.33,12.07
		l7.75,9.97l10.72-6.69c10.9-6.8,21.87-13.73,32.61-20.59l12.63-8.08l43.67,18.82l6.07,2.94l6.08-2.92
		c17.25-8.27,34.44-16.59,51.1-24.74l3.68-1.8l0.82,15.93l12.93,0.36c25.13,0.69,50.6,1.62,75.7,2.77l80.01,8.68l8.48,0.45
		c13.33,0.72,26.75,1.51,39.9,2.36l23.7,1.54l-8.06-17.08c18.33,10.25,36.89,20.7,55.2,31.08l6.35,3.6l6.59-3.15
		c16.25-7.77,30.85-14.87,44.64-21.71l3.68-1.83c1.33,5.12,2.67,10.25,4,15.37l2.35,9l9.21,1.33c12.42,1.79,25,3.67,37.38,5.59
		l17.69,2.74l0.98,1.77l7.03,0.89c13.07,1.65,26.31,3.4,39.36,5.2l28.11,3.88L1508.83,1069.85z"/>
	<g>
		<g>
			<path class="st4" d="M528.94,996.75c-3.63,11.15-7.26,22.3-10.89,33.45c-19.83,10.14-39.68,20.24-59.55,30.29
				c-14.11-5.18-28.24-10.33-42.37-15.44c16.18-40.01,32.39-80.01,48.61-120c18.32-10.48,36.61-21.03,54.87-31.63
				c12.57,5.15,25.14,10.33,37.69,15.53c-3.95,12.2-7.89,24.39-11.84,36.59c-11.79,1.37-23.58,2.81-35.35,4.31
				c2.11-5.87,3.17-8.8,5.28-14.67c-3.22-1.63-4.82-2.44-8-4.04c-6.35,3.93-9.54,5.9-15.96,9.85
				c-9.84,25.89-19.67,51.79-29.51,77.68c3.44,1.63,5.17,2.44,8.65,4.09c6.75-3.89,10.12-5.83,16.8-9.7c1.6-4.44,2.4-6.67,4-11.11
				C503.88,1000.14,516.41,998.41,528.94,996.75z"/>
			<path class="st4" d="M641.5,1018.24c-19.11,9.65-38.26,19.24-57.42,28.79c-14.85-5.92-29.73-11.78-44.63-17.6
				c12.39-40.53,24.8-81.05,37.23-121.56c17.64-10.03,35.25-20.11,52.81-30.3c13.33,5.82,26.66,11.65,39.97,17.51
				C660.12,936.13,650.8,977.19,641.5,1018.24z M583.36,1004.14c3.66,1.81,5.5,2.72,9.2,4.55c6.48-3.73,9.7-5.59,16.11-9.31
				c6.91-26.33,13.82-52.67,20.72-79c-3.44-1.8-5.16-2.7-8.56-4.49c-6.08,3.79-9.13,5.69-15.28,9.49
				C598.16,951.63,590.76,977.88,583.36,1004.14z"/>
			<path class="st4" d="M715.91,938.15c-5.58,30.74-11.15,61.49-16.71,92.24c-13.17,0.94-26.33,1.95-39.49,3.04
				c11.05-51.24,22.11-102.48,33.16-153.72c11.47-1.32,22.95-2.6,34.43-3.84c5.35,10.68,10.85,21.29,16.46,31.83
				c1.86-11.07,3.73-22.14,5.59-33.21c11.47-1,22.94-1.97,34.41-2.89c-7.04,51.9-14.05,103.8-21.03,155.71
				c-13.17,0.7-26.33,1.47-39.49,2.32c3.39-20.12,6.77-40.24,10.16-60.37C727.47,958.95,721.63,948.58,715.91,938.15z"/>
			<path class="st4" d="M847.36,1029.18c-3.76,1.82-5.65,2.73-9.43,4.55c-16.3-7.43-32.61-14.82-48.95-22.17
				c4.86-41.98,9.74-83.97,14.64-125.94c16.23-9.21,32.43-18.49,48.58-27.85c14.8,7.21,29.59,14.46,44.36,21.75
				c-1.88,42.73-3.74,85.46-5.58,128.2c-3.25,1.62-4.87,2.43-8.13,4.05c5.2,7.15,7.84,10.75,13.18,17.96
				c-10.79,6.9-21.62,13.73-32.48,20.51C856.97,1041.77,853.73,1037.56,847.36,1029.18z M829.07,988.22
				c4.09,2.21,6.14,3.32,10.27,5.55c5.91-3.44,8.84-5.16,14.69-8.59c2.08-27.35,4.17-54.71,6.25-82.06
				c-3.87-2.19-5.8-3.27-9.64-5.44c-5.52,3.53-8.29,5.3-13.88,8.83C834.19,933.75,831.63,960.99,829.07,988.22z"/>
			<path class="st4" d="M953.95,863.68c-0.3,42.97-0.6,85.95-0.91,128.92c4.31,2.43,6.48,3.64,10.82,6.09
				c5.64-3.3,8.44-4.96,14.02-8.26c-0.46-42.28-0.91-84.56-1.37-126.84c11.63-0.47,23.26-0.9,34.89-1.28
				c1.86,50.88,3.71,101.77,5.57,152.65c-16.97,8.3-33.97,16.53-51,24.69c-17.05-8.26-34.12-16.47-51.21-24.64
				c1.53-50.11,3.07-100.22,4.61-150.34C930.9,864.31,942.42,863.98,953.95,863.68z"/>
			<path class="st4" d="M1072.06,929.93c11.58,0.14,23.15,0.31,34.72,0.53c1.2,12.02,2.39,24.03,3.59,36.05
				c-11.79-0.48-23.58-0.91-35.37-1.26c0.77,9.5,1.53,19,2.3,28.5c12,0.28,24,0.62,36,1.02c1.2,12.02,2.39,24.03,3.59,36.05
				c-25.31-1.15-50.62-2.08-75.95-2.77c-2.83-54.71-5.66-109.42-8.48-164.13c22.91-0.18,45.82-0.16,68.73,0.06
				c1.01,11.97,2.02,23.94,3.02,35.92c-11.52-0.03-23.03-0.02-34.55,0.03C1070.45,909.93,1071.26,919.93,1072.06,929.93z"/>
			<path class="st4" d="M1179.99,983.05c-2.9-0.26-4.35-0.39-7.24-0.64c2.49,18.04,4.97,36.08,7.46,54.12
				c-12.59-1.02-25.19-1.97-37.79-2.86c-6.73-56.29-13.43-112.57-20.11-168.86c15.06-0.96,30.13-1.86,45.2-2.68
				c16.62,8.58,33.21,17.2,49.78,25.88c4.72,25.66,9.45,51.32,14.19,76.98c-7.26,3-10.92,4.51-18.28,7.52
				c10.62,23.35,21.41,46.62,32.36,69.82c-13.35-0.87-26.7-1.66-40.05-2.37C1196.88,1021.03,1188.38,1002.07,1179.99,983.05z
				 M1167.96,944.24c4.18,0.41,6.27,0.62,10.44,1.04c4.82-3.65,7.21-5.48,11.96-9.14c-1.62-10.58-2.43-15.87-4.05-26.44
				c-4.51-3.25-6.76-4.87-11.24-8.09c-5.14,0.4-7.71,0.6-12.87,1.01C1164.13,916.49,1166.04,930.36,1167.96,944.24z"/>
			<path class="st4" d="M1366.84,1038.04c-14.76,7.33-29.59,14.52-44.45,21.62c-18.75-10.63-37.53-21.21-56.35-31.73
				c-9-46.26-17.98-92.52-26.94-138.79c13.5-7.9,26.95-15.9,40.3-24.06c17.35,10.17,34.65,20.41,51.94,30.68
				C1343.16,943.19,1354.99,990.62,1366.84,1038.04z M1298.68,1007.56c4.83,3.05,7.25,4.58,12.12,7.66
				c4.8-3.01,7.18-4.51,11.92-7.52c-6.78-30.26-13.56-60.51-20.34-90.77c-4.62-3-6.93-4.49-11.52-7.46
				c-4.43,3.15-6.66,4.72-11.16,7.87C1286.02,947.41,1292.35,977.49,1298.68,1007.56z"/>
			<path class="st4" d="M1423.2,1009.91c-2.89-0.47-4.33-0.71-7.22-1.18c5.28,19.16,10.56,38.31,15.84,57.47
				c-12.5-1.94-25.01-3.81-37.53-5.61c-15.56-59.72-31.11-119.44-46.63-179.17c14.77,0.06,29.53,0.18,44.3,0.37
				c17.73,10.18,35.43,20.41,53.09,30.7c8.6,27.32,17.21,54.64,25.83,81.95c-6.65,2.66-10,3.99-16.75,6.66
				c14.04,25.29,28.22,50.51,42.52,75.66c-13.16-1.82-26.34-3.56-39.52-5.22C1445.74,1051.05,1434.43,1030.51,1423.2,1009.91z
				 M1405.28,968.24c4.18,0.72,6.26,1.09,10.44,1.82c4.17-3.51,6.23-5.27,10.33-8.79c-2.7-9.37-5.4-18.74-8.11-28.1
				c-4.95-3.73-7.42-5.59-12.33-9.3c-5,0.06-7.51,0.09-12.53,0.16C1397.15,938.77,1401.21,953.5,1405.28,968.24z"/>
		</g>
	</g>
</g>
<g id="Duplicado" class="st0">
</g>
<g id="Layer_5">
	<g>
		<g>
			<rect x="876.87" y="496.57" class="st5" width="83.13" height="66.64"/>
			<g>
				<rect x="877.87" y="497.57" class="st6" width="93.13" height="66.64"/>
			</g>
			<g>
				<rect x="877.87" y="576.57" class="st6" width="83.13" height="66.64"/>
			</g>
			<path class="st7" d="M0,969.53"/>
			<path class="st7" d="M1920,950.47"/>
			<polyline class="st8" points="960,654.32 766.69,654.32 727,722.44 960,737.04 			"/>
			<g>
				<polygon class="st9" points="954.13,747.21 795.43,735.72 795.43,841.91 954.13,841.91 				"/>
			</g>
			<polygon class="st10" points="949.83,1189.4 794.43,1188.15 794.43,1403.79 949.83,1512.06 			"/>
			<g>
				<polygon class="st9" points="954.13,1185.43 795.43,1184.15 795.43,1403.81 954.13,1514.11 				"/>
			</g>
		</g>
	</g>
	<g>
		<g>
			<rect x="960" y="496.57" class="st5" width="83.13" height="66.64"/>
			<g>
				<rect x="949" y="497.57" class="st6" width="93.13" height="66.64"/>
			</g>
			<g>
				<rect x="959" y="576.57" class="st6" width="83.13" height="66.64"/>
			</g>
			<path class="st7" d="M1920,969.53"/>
			<path class="st7" d="M0,950.47"/>
			<polyline class="st8" points="960,654.32 1153.31,654.32 1193,722.44 960,737.04 			"/>
			<g>
				<polygon class="st9" points="965.87,747.21 1124.57,735.72 1124.57,841.91 965.87,841.91 				"/>
			</g>
			<polygon class="st10" points="970.17,1189.4 1125.57,1188.15 1125.57,1403.79 970.17,1512.06 			"/>
			<g>
				<polygon class="st9" points="965.87,1185.43 1124.57,1184.15 1124.57,1403.81 965.87,1514.11 				"/>
			</g>
		</g>
	</g>
</g>
<g id="Layer_7">
	<polygon class="st11" points="1000.52,1185.43 1124.53,1184.15 1124.53,1403.81 1000.52,1489.99 	"/>
	<polygon class="st12" points="1042.13,1185.43 1124.57,1184.15 1124.57,1403.81 1042.13,1461.1 	"/>
	<polygon class="st11" points="1000.57,744.48 1124.49,735.72 1124.49,841.91 1000.57,841.91 	"/>
	<polygon id="Oscuro" class="st12" points="1042.13,741.69 1124.49,735.72 1124.49,841.91 1042.13,841.91 	"/>
	<polygon class="st13" points="1012.73,733.74 990.28,654.32 1153.31,654.32 1193,722.44 	"/>
	<polygon class="st14" points="757.43,695.68 775.81,662.45 807.98,662.45 	"/>
	<rect x="990.28" y="576.57" class="st15" width="51.86" height="66.64"/>
	<polygon class="st15" points="1042.13,564.21 1042.13,497.57 990.28,496.57 990.28,563.21 	"/>
</g>
<g id="Circulo">
	<g>
		<ellipse class="st8" cx="960" cy="469.28" rx="110" ry="50"/>
		<path class="st13" d="M990.96,517.91c-3.49,1.81-3.56-1.39,47.66-12.26c17.98-3.82,20.9-10.28,26.29-21.11
			c4.27-8.57,3.4-23.62-0.54-31.1c-7.72-14.64-73.54-31.52-70.69-28.28C1026.8,462.79,1020.62,502.52,990.96,517.91z"/>
		<ellipse class="st16" cx="960" cy="469.28" rx="110" ry="50"/>
	</g>
</g>
<g id="Layer_8">
	<g>
		<path class="st4" d="M606.25,1163.54c0.09,1.2-0.53,1.79-1.86,1.79c-0.84,0-3.27-0.49-7.27-1.46c-4.01-0.97-6.47-1.64-7.4-1.99
			c-9.25,3.63-18.13,5.45-26.63,5.45c-13.68,0-24.9-4.56-33.67-13.68c-8.68-8.99-13.02-20.34-13.02-34.07
			c0-14.03,4.21-25.68,12.62-34.93c8.68-9.56,19.94-14.34,33.8-14.34c6.73,0,13.06,1.28,18.99,3.85
			c6.42,2.83,11.47,6.82,15.14,11.95c0.75,1.06,1.13,1.82,1.13,2.26c0,1.42-1.98,4.59-5.94,9.53c-3.96,4.94-6.52,7.4-7.67,7.4
			c-0.27,0-1.28-0.91-3.05-2.72c-2.17-2.17-4.38-3.85-6.64-5.05c-3.37-1.82-7.08-2.72-11.16-2.72c-6.64,0-11.91,2.48-15.8,7.44
			c-3.63,4.56-5.45,10.25-5.45,17.07c0,7.22,1.88,12.93,5.64,17.13c3.9,4.34,9.41,6.51,16.54,6.51c4.52,0,9.56-1.13,15.14-3.39
			c-0.13-1.46-0.53-5.18-1.2-11.16c-0.58-4.6-0.86-8.32-0.86-11.16c0-0.84,0.29-1.35,0.86-1.53c0.22-0.09,0.58-0.13,1.06-0.13
			c1.28,0,3.22,0.12,5.81,0.37s4.55,0.37,5.88,0.37c1.42,0,3.54-0.1,6.38-0.3c2.83-0.2,4.96-0.3,6.38-0.3
			c1.11,0,1.66,0.73,1.66,2.19c0,2.12-0.12,5.33-0.37,9.63c-0.24,4.29-0.37,7.5-0.37,9.63c0,5.71,0.42,14.25,1.26,25.63
			L606.25,1163.54z"/>
		<path class="st4" d="M709.25,1164c0,0.8-0.55,1.35-1.66,1.66c-1.33,0.35-5.45,0.53-12.35,0.53c-6.33,0-10.4-0.18-12.22-0.53
			c-1.51-0.31-2.46-1.31-2.86-2.99c-1.51-6.38-2.68-9.78-3.52-10.23c-0.71-0.31-6.64-0.46-17.8-0.46c-7.53,0-11.53,0.2-12.02,0.6
			c-0.75,0.71-1.59,3.08-2.52,7.11c-0.84,3.67-1.86,5.67-3.05,5.98c-1.51,0.35-6.55,0.53-15.14,0.53c-6.77,0-10.16-0.64-10.16-1.93
			c0-1.15,5-15.3,15.01-42.43c10.85-29.35,16.73-45.49,17.66-48.41c0.53-1.68,1.15-2.52,1.86-2.52c1.2,0,3.04,0.11,5.54,0.33
			c2.5,0.22,4.37,0.33,5.61,0.33c1.2,0,2.96-0.08,5.28-0.23s4.06-0.23,5.21-0.23c0.84,0,1.62,0.73,2.32,2.19
			c2.17,4.65,8.5,20.59,18.99,47.81C703.98,1148.5,709.25,1162.8,709.25,1164z M662.17,1103.5c-0.93,1.95-2.5,6.18-4.71,12.68
			c-2.39,6.91-3.59,10.96-3.59,12.15c0,0.8,1.33,1.24,3.98,1.33c1.37,0.09,3.63,0.13,6.77,0.13c2.92,0,4.54-0.35,4.85-1.06
			c0.09-0.22,0.13-0.53,0.13-0.93c0-1.46-1.02-5.49-3.05-12.09C664.56,1109.35,663.1,1105.27,662.17,1103.5z"/>
		<path class="st4" d="M821.16,1163.6c0,1.37-0.64,2.06-1.93,2.06h-23.51c-1.28,0-1.93-0.77-1.93-2.32c0-4.47,0.17-11.18,0.5-20.12
			s0.5-15.65,0.5-20.12c0-1.28-0.2-1.97-0.6-2.06c-0.49,0.27-3.45,7.11-8.9,20.52c-3.19,7.88-6.38,15.74-9.56,23.57
			c-0.44,1.02-1,1.62-1.66,1.79c-0.22,0.04-1.11,0.07-2.66,0.07c-2.3,0-3.67-0.44-4.12-1.33c-2.39-4.87-5.53-11.95-9.43-21.25
			c-4.16-9.83-7.28-16.93-9.36-21.32c-0.09-0.22-0.29-0.46-0.6-0.73c-0.31,0.4-0.46,1.04-0.46,1.93c0,4.34,0.11,10.85,0.33,19.52
			c0.22,8.68,0.33,15.18,0.33,19.52c0,1.55-0.62,2.32-1.86,2.32h-22.18c-0.89,0-1.43-0.14-1.63-0.43s-0.3-0.79-0.3-1.49
			c0-4.83,0.23-12.08,0.7-21.75s0.7-16.92,0.7-21.75c0-5.14-0.22-14.76-0.66-28.89c-0.04-3.67-0.24-9.14-0.6-16.4l-0.07-1.13
			c-0.04-0.89,0.88-1.33,2.79-1.33c2.43,0,6.09-0.08,10.96-0.23c4.87-0.16,8.52-0.23,10.96-0.23c0.49,0,1.17,0.93,2.06,2.79
			l19.39,42.57c1.37,2.88,2.52,4.32,3.45,4.32c0.49,0,1.53-1.66,3.12-4.98c4.47-9.3,11.09-23.31,19.86-42.04
			c0.75-1.73,1.57-2.59,2.46-2.59c1.28,0,3.22,0.07,5.81,0.2s4.55,0.2,5.88,0.2c1.11,0,2.8-0.11,5.08-0.33
			c2.28-0.22,3.97-0.33,5.08-0.33c1.33,0,1.99,0.53,1.99,1.59c0,5.22-0.19,13.03-0.56,23.41c-0.38,10.38-0.56,18.18-0.56,23.41
			c0,4.83,0.2,12.06,0.6,21.71S821.16,1158.82,821.16,1163.6z"/>
		<path class="st4" d="M907.63,1145.01c0,1.9-0.38,5.4-1.13,10.49c-0.8,5.53-1.51,8.83-2.12,9.89c-0.53,0.84-1.26,1.26-2.19,1.26
			c-0.4,0-1.06-0.07-1.99-0.2c-3.23-0.44-12.66-0.66-28.29-0.66c-3.41,0-8.48-0.02-15.21-0.07c-6.73-0.04-11.78-0.07-15.14-0.07
			c-1.46,0-2.19-0.64-2.19-1.93c0-4.96,0.28-12.41,0.83-22.35c0.55-9.94,0.83-17.39,0.83-22.35c0-5.05-0.27-14.45-0.8-28.22
			c-0.13-3.54-0.38-8.83-0.73-15.87l-0.07-0.93c-0.09-1.02,0.46-1.53,1.66-1.53c3.28,0,8.2,0.09,14.78,0.27s11.5,0.27,14.78,0.27
			c3.23,0,8.1-0.09,14.61-0.27s11.38-0.27,14.61-0.27c2.3,0,3.63,0.86,3.98,2.59c0.22,1.02,0.56,4.11,1.03,9.26s0.7,8.29,0.7,9.4
			c0,0.93-0.44,1.39-1.33,1.39c-0.27,0-0.73-0.02-1.39-0.07c-11.78-0.97-22.36-1.46-31.74-1.46c-2.35,0-3.79,0.55-4.32,1.66
			c-0.22,0.53-0.33,2.24-0.33,5.11c0,3.01,0.44,5,1.33,5.98c0.75,0.84,2.19,1.26,4.32,1.26c0.44,0,1.31-0.03,2.59-0.1
			c1.28-0.07,2.35-0.1,3.19-0.1c5.58,0,11.22-0.16,16.93-0.46c0.49-0.04,1.7-0.16,3.65-0.33c1.5-0.18,2.7-0.27,3.59-0.27
			c1.06,0,1.59,0.51,1.59,1.53c0-0.93-0.4,2.46-1.2,10.16c-0.35,3.54-0.53,7.08-0.53,10.62c0,0.89-0.64,1.33-1.93,1.33l-5.98-0.66
			c-2.52-0.27-8.28-0.4-17.27-0.4h-7.04c-1.82,0-2.88,0.44-3.19,1.33c-0.04,0.22-0.07,1.59-0.07,4.12c0,3.36,0.22,5.53,0.66,6.51
			c0.75,1.68,3.59,2.68,8.5,2.99c-0.09,0,3.14,0,9.7,0c2.35,0,5.83-0.21,10.46-0.63c4.63-0.42,8.09-0.63,10.39-0.63
			C907.14,1142.62,907.63,1143.41,907.63,1145.01z"/>
		<path class="st4" d="M967.87,1135.11c0,8.99-3.79,16.69-11.36,23.11c-6.64,5.67-14.72,9.27-24.24,10.82
			c-0.35,0.04-0.64,0.07-0.86,0.07c-1.02,0-3.28-3.11-6.77-9.33c-3.5-6.22-5.25-10.02-5.25-11.39c0-0.49,0.33-0.8,1-0.93
			c6.42-1.46,10.67-2.7,12.75-3.72c4.6-2.3,6.91-5.71,6.91-10.23c0-2.88-1.51-6.09-4.52-9.63c-5.22-6.02-8.06-9.36-8.5-10.03
			c-3.05-4.6-4.58-9.7-4.58-15.27c0-8.1,3.74-14.83,11.22-20.19c6.11-4.43,13.61-7.3,22.51-8.63c0.49-0.04,0.86-0.07,1.13-0.07
			c0.66,0,1.2,0.53,1.59,1.59c1.15,3.23,3.83,9.08,8.04,17.53c0.13,0.27,0.2,0.49,0.2,0.66c0,0.75-0.4,1.13-1.2,1.13
			c-0.35,0-0.95-0.07-1.79-0.2c-0.84-0.13-1.48-0.2-1.93-0.2c-3.19,0-5.98,0.73-8.37,2.19c-2.88,1.68-4.32,4.03-4.32,7.04
			c0,2.7,1.59,6.02,4.78,9.96c5.62,7.08,8.57,10.8,8.83,11.16C966.3,1125.44,967.87,1130.29,967.87,1135.11z"/>
		<path class="st4" d="M1049.69,1092.81c0,0.89-0.49,1.33-1.46,1.33c-1.68,0-8.35-0.33-19.99-1c-0.27,11.2-0.4,19.01-0.4,23.44
			c0,5.22,0.21,13.08,0.63,23.57c0.42,10.49,0.63,18.35,0.63,23.57c0,0.84-0.2,1.37-0.6,1.59c-0.13,0.09-0.75,0.2-1.86,0.33
			c-2.66,0.35-6.55,0.53-11.69,0.53c-5.71,0-9.72-0.18-12.02-0.53c-1.24-0.22-1.86-0.91-1.86-2.06c0-5.22,0.22-13.06,0.66-23.51
			c0.44-10.45,0.66-18.28,0.66-23.51c0-3.45-0.18-11.16-0.53-23.11c-8.85,0.89-15.92,1.33-21.18,1.33c-0.71,0-1.06-0.22-1.06-0.66
			c0-0.58,0.31-2.28,0.93-5.11c0.71-3.1,1.11-4.98,1.2-5.64c0.13-2.08,0.29-4.16,0.46-6.24c0.31-3.32,0.84-4.98,1.59-4.98
			c0.09,0,0.4,0.02,0.93,0.07c7.17,0.93,17.77,1.39,31.81,1.39c3.98,0,11.33-0.42,22.05-1.26c5.75-0.44,8.65-0.66,8.7-0.66
			c0.88,0,1.39,0.06,1.53,0.17s0.22,0.54,0.27,1.29c0,1.2-0.04,2.86-0.13,4.98c-0.09,2.35-0.13,4.01-0.13,4.98
			c0,1.11,0.14,2.73,0.43,4.88C1049.55,1090.15,1049.69,1091.75,1049.69,1092.81z"/>
		<path class="st4" d="M1142.21,1133.05c0,11.29-1.35,18.99-4.05,23.11c-4.96,7.53-17.33,11.29-37.12,11.29
			c-8.94,0-15.83-0.69-20.65-2.06c-7.7-2.21-12.71-6.44-15.01-12.68c-1.15-3.05-1.73-8.5-1.73-16.34c0-1.82,0.07-4.52,0.2-8.1
			s0.2-6.26,0.2-8.04c0-5.14-0.24-12.84-0.73-23.11c-0.49-10.27-0.73-17.95-0.73-23.04c0-1.06,0.46-1.59,1.39-1.59
			c2.7,0,6.78,0.11,12.25,0.33c5.47,0.22,9.55,0.33,12.25,0.33c1.11,0,1.66,0.49,1.66,1.46c0,5.84-0.19,14.6-0.56,26.26
			c-0.38,11.67-0.56,20.42-0.56,26.26c0,6.95,0.73,11.64,2.19,14.08c1.95,3.32,6.02,4.98,12.22,4.98c9.08,0,13.61-4.41,13.61-13.21
			c0-6.42-0.16-16.05-0.46-28.89c-0.31-12.84-0.46-22.47-0.46-28.89c0-1.37,0.55-2.06,1.66-2.06c2.61,0,6.55-0.11,11.82-0.33
			c5.27-0.22,9.21-0.33,11.82-0.33c1.28,0,1.93,0.53,1.93,1.59c0,5.09-0.21,12.77-0.63,23.04c-0.42,10.27-0.63,17.97-0.63,23.11
			c0,1.42,0.02,3.55,0.07,6.41C1142.19,1129.5,1142.21,1131.64,1142.21,1133.05z"/>
		<path class="st4" d="M1248.07,1118.58c0,13.02-4.18,24.3-12.55,33.87c-7.39,8.54-17.78,13.04-31.14,13.48
			c-2.57,0.09-9.63,0.13-21.18,0.13c-2.17,0-5.43-0.07-9.79-0.2c-4.36-0.13-7.63-0.2-9.79-0.2c-1.28,0-1.93-0.51-1.93-1.53
			c0-4.87,0.19-12.19,0.56-21.95c0.38-9.76,0.56-17.08,0.56-21.95c0-5.09-0.19-12.72-0.56-22.88c-0.38-10.16-0.56-17.76-0.56-22.81
			c0-0.93,0.64-1.48,1.93-1.66c3.14-0.35,8.3-0.53,15.47-0.53c13.63,0,22.47,0.2,26.5,0.6c10.49,1.06,18.7,3.72,24.64,7.97
			c5.58,3.98,9.98,9.56,13.21,16.73C1246.52,1104.43,1248.07,1111.41,1248.07,1118.58z M1222.64,1118.58
			c0-7.48-2.24-13.59-6.71-18.33c-4.52-4.91-10.49-7.37-17.93-7.37c-6.82,0-10.23,0.91-10.23,2.72c0,2.61-0.04,6.54-0.13,11.79
			c-0.09,5.25-0.13,9.17-0.13,11.79c0,2.57,0.04,6.43,0.13,11.59c0.09,5.16,0.13,9.04,0.13,11.65c0,1.9,3.54,2.86,10.62,2.86
			c7.66,0,13.68-2.55,18.06-7.64C1220.58,1132.81,1222.64,1126.46,1222.64,1118.58z"/>
		<path class="st4" d="M1291.44,1116.59c0,5.22,0.13,13.08,0.4,23.57s0.4,18.35,0.4,23.57c0,0.89-0.2,1.44-0.6,1.66
			c-0.09,0.04-0.66,0.13-1.73,0.27c-2.88,0.35-6.73,0.53-11.55,0.53c-6.46,0-10.58-0.18-12.35-0.53c-1.28-0.27-1.93-0.95-1.93-2.06
			c0,0.71,0.2-3.19,0.6-11.69c0.8-17.93,1.2-29.71,1.2-35.33c0-4.74-0.16-11.84-0.46-21.32c-0.31-9.47-0.46-16.58-0.46-21.32
			c0-0.97,0.51-1.46,1.53-1.46c1.37,0,3.44,0.07,6.21,0.2c2.77,0.13,4.84,0.2,6.21,0.2c1.37,0,3.4-0.07,6.08-0.2
			c2.68-0.13,4.7-0.2,6.08-0.2c1.28,0,1.93,0.49,1.93,1.46c0,4.74-0.25,11.84-0.76,21.32
			C1291.7,1104.74,1291.44,1111.85,1291.44,1116.59z"/>
		<path class="st4" d="M1403.35,1119.18c0,13.81-4.41,25.39-13.21,34.73c-8.99,9.47-20.37,14.21-34.13,14.21
			c-13.68,0-25.04-4.78-34.07-14.34c-8.85-9.34-13.28-20.87-13.28-34.6c0-13.77,4.43-25.34,13.28-34.73
			c9.03-9.61,20.39-14.41,34.07-14.41c13.59,0,24.92,4.8,34,14.41C1398.9,1093.92,1403.35,1105.5,1403.35,1119.18z M1378.18,1119.04
			c0-6.64-2.01-12.29-6.04-16.93c-4.21-4.87-9.58-7.3-16.14-7.3c-6.24,0-11.53,2.52-15.87,7.57c-4.21,4.87-6.31,10.47-6.31,16.8
			c0,6.77,1.97,12.42,5.91,16.93c4.16,4.74,9.58,7.11,16.27,7.11c6.24,0,11.55-2.5,15.94-7.5
			C1376.1,1130.93,1378.18,1125.37,1378.18,1119.04z"/>
	</g>
</g>
</svg>
