<?xml version="1.0" encoding="utf-8"?>
<!-- Svg Vector Icons : http://www.onlinewebfonts.com/icon -->
<!DOCTYPE svg PUBLIC "-//W3C//DTD SVG 1.1//EN" "http://www.w3.org/Graphics/SVG/1.1/DTD/svg11.dtd">
<svg version="1.1" xmlns="http://www.w3.org/2000/svg" xmlns:xlink="http://www.w3.org/1999/xlink" x="0px" y="0px" viewBox="0 0 1000 1000" enable-background="new 0 0 1000 1000" xml:space="preserve">
<metadata> Svg Vector Icons : http://www.onlinewebfonts.com/icon </metadata>
<g><path d="M575.4,472.8c20.9,0,37.9-17,37.9-37.9c0-20.9-17-37.9-37.9-37.9c-20.9,0-37.9,17-37.9,37.9C537.5,455.9,554.4,472.8,575.4,472.8z M703.2,472.8c21,0,37.9-17,37.9-37.9c0-20.9-16.9-37.9-37.9-37.9c-20.9,0-37.9,17-37.9,37.9C665.3,455.9,682.3,472.8,703.2,472.8z M213.2,531.8h53.2V585c0,11.8,9.6,21.3,21.3,21.3H309c11.8,0,21.3-9.5,21.3-21.3v-53.2h53.3c11.8,0,21.3-9.5,21.3-21.3v-21.3c0-11.8-9.5-21.3-21.3-21.3h-53.3v-53.2c0-11.8-9.5-21.3-21.3-21.3h-21.3c-11.8,0-21.3,9.5-21.3,21.3v53.2h-53.2c-11.8,0-21.3,9.5-21.3,21.3v21.3C191.9,522.3,201.4,531.8,213.2,531.8z M904.8,233.7H95.2c-47.1,0-85.2,38.2-85.2,85.2v362.2c0,47.1,38.2,85.2,85.2,85.2h809.5c47.1,0,85.2-38.2,85.2-85.2V318.9C990,271.8,951.8,233.7,904.8,233.7z M73.9,394.1c0-5.9,4.8-10.6,10.6-10.6c5.9,0,10.7,4.8,10.7,10.6v170.4c0,5.9-4.8,10.6-10.7,10.6c-5.9,0-10.6-4.8-10.6-10.6V394.1z M83.6,616.3c-8,0-14.6-6.5-14.6-14.6c0-8.1,6.5-14.6,14.6-14.6c8.1,0,14.6,6.5,14.6,14.6C98.2,609.7,91.6,616.3,83.6,616.3z M819.6,723.7H137.8V276.3h681.7V723.7z M906.2,536.5c-20.1,0-36.5-16.3-36.5-36.5c0-20.2,16.4-36.5,36.5-36.5c20.2,0,36.5,16.3,36.5,36.5C942.8,520.2,926.4,536.5,906.2,536.5z M532.8,600.6c20.9,0,37.9-17,37.9-37.9c0-21-17-37.9-37.9-37.9s-37.9,16.9-37.9,37.9C494.9,583.7,511.8,600.6,532.8,600.6z M660.6,600.6c21,0,37.9-17,37.9-37.9c0-21-16.9-37.9-37.9-37.9c-20.9,0-37.9,16.9-37.9,37.9C622.7,583.7,639.7,600.6,660.6,600.6z"/></g>
</svg>